ply
format ascii 1.0
comment PCL generated
element vertex 84
property float x
property float y
property float z
property float nx
property float ny
property float nz
property float curvature
element face 2
property list uchar int vertex_indices
end_header
2.7983 -3.5943 70.534 -0.61872 -0.78528 -0.022814 0.0020462 
-51.747 12.668 -655.8 0.98426 0.16831 -0.053866 0 
4.4311 -4.454 87.525 0.99256 0.096767 -0.073843 0.0061141 
2.7492 -3.4935 71.066 -0.6189 -0.78514 -0.022793 0.0020475 
304.09 -132.15 4447.2 0.90193 0.42843 -0.054531 0 
-9.5892 -0.10171 -125.82 0.48746 -0.87295 -0.018634 0.00092304 
18.028 3.7004 454.31 0.52853 0.84829 -0.032509 0.0011623 
-11.967 -2.2656 -195.63 -0.21093 0.97748 0.0065952 0.0014522 
-12.038 -3.0977 -200.75 -0.21093 0.97748 0.0065952 0.0014522 
-14.176 -5.0862 -243.2 0.98587 -0.16082 -0.046829 0.0012895 
-12.416 -5.56 -229.56 -0.21093 0.97748 0.0065952 0.0014522 
0.66878 1.0869 20.432 -0.93678 0.3491 -0.024074 0.0011937 
10.625 9.1923 249.21 0.065966 -0.99779 -0.0081831 0.0057075 
4.5351 5.4942 115.35 -0.99719 0.07156 -0.022069 0.020028 
-0.18533 1.7941 31.064 -0.9451 0.32565 -0.027152 0.0012355 
4.1592 6.3756 119.41 -0.96673 0.25327 -0.035853 0.020111 
0.31176 2.22 35.592 -0.86691 -0.4977 -0.027728 0.003067 
-0.49977 1.8339 27.809 0.93678 -0.34909 0.024074 0.0011937 
-0.64896 1.7071 24.426 0.93678 -0.3491 0.024074 0.0011937 
0.46635 -1.7823 38.524 -0.75693 -0.65259 -0.034552 0.0031374 
5.0937 -4.6413 96.674 0.985 0.15181 -0.082048 0.0060707 
284.55 -93.077 3803.4 -0.90193 -0.42843 0.054531 0 
7.5913 -6.2743 136.74 -0.90922 0.41274 -0.054546 0.023451 
12.642 -8.6678 199.55 -0.3576 0.93387 -0.0021721 0.010314 
-1.7092 -1.5519 39.377 0.75693 0.65259 0.034552 0.0031374 
0.045091 0.24813 5.0415 -0.93678 0.3491 -0.024074 0.0011937 
2.6391 -3.6882 97.641 0.985 0.15181 -0.082048 0.0060711 
3.0014 -3.1667 91.729 0.99256 0.096765 -0.073843 0.0061138 
5.0036 -4.3997 135.14 -0.90921 0.41275 -0.054546 0.023451 
4.5868 -4.5178 145.42 -0.89054 0.4471 -0.083915 0.023737 
2.5396 -3.5212 160.74 -0.22642 -0.97152 -0.06995 0.021619 
-2.8052 -5.568 251.94 -0.065967 0.99779 0.008183 0.0057075 
23.956 -8.1357 542.32 0.52854 0.84829 -0.032509 0.0011623 
-6.2636 -2.9965 167.29 -0.23725 -0.96919 -0.066145 0.016729 
-19.67 2.5961 -259.94 0.98587 -0.16081 -0.04683 0.0012895 
-13.324 1.6772 -183.31 0.21093 -0.97748 -0.0065952 0.0014522 
-5.955 -1.9716 157.02 -0.22642 -0.97152 -0.06995 0.021619 
-10.607 1.0425 -150.23 0.21093 -0.97748 -0.0065952 0.0014522 
-1.9563 0.064423 64.378 -0.60606 -0.79491 -0.02847 0.0023025 
-9.1546 -0.11149 -120.74 0.48746 -0.87295 -0.018634 0.00092304 
26.173 5.4598 658 0.79092 0.6104 -0.043162 0.00068612 
-12.168 -2.3355 -197.79 -0.21093 0.97748 0.0065952 0.0014522 
-11.801 -3.0857 -197.34 -0.21093 0.97748 0.0065953 0.0014522 
-1.616 1.3654 66.27 -0.60606 -0.79491 -0.02847 0.0023025 
3.9346 3.6943 131.07 -0.90921 0.41275 -0.054546 0.023451 
0.67623 1.1621 22.781 -0.93698 0.34855 -0.024077 0.0011906 
0.67281 1.0883 20.246 -0.93678 0.3491 -0.024074 0.0011937 
4.5474 5.5204 115.16 -0.99719 0.071567 -0.022069 0.020029 
4.0367 6.1885 116.31 -0.99929 0.0298 -0.023068 0.020979 
-0.40284 1.782 27.842 0.93698 -0.34855 0.024077 0.0011906 
-10.74 0.86008 -139.97 0.21093 -0.97748 -0.0065952 0.0014522 
65.293 -37.809 951.49 0.79054 0.61088 -0.043276 0.00030065 
3.1738 -3.7753 109.17 0.99477 0.081592 -0.061479 0.0059803 
4.8267 -4.3182 129.18 -0.90922 0.41274 -0.054546 0.023451 
4.9388 -3.9791 139.04 -0.89054 0.4471 -0.083915 0.023737 
16.135 -5.2106 360.17 0.41968 0.90751 -0.017056 0.001669 
-5.5605 -2.7755 152.43 -0.22642 -0.97152 -0.06995 0.021619 
-13.997 2.9993 -228.78 0.21093 -0.97748 -0.0065952 0.0014522 
-1.7712 -0.45537 66.655 -0.60606 -0.79491 -0.02847 0.0023025 
-1.4296 -1.0625 204.35 -0.35753 0.9339 -0.0021704 0.010313 
55.679 12.076 1391.4 0.79054 0.61088 -0.043276 0.00030065 
-12.162 -2.3568 -194.7 -0.21093 0.97748 0.0065952 0.0014522 
-13.191 -3.6198 -222.87 -0.21093 0.97748 0.0065952 0.0014522 
-24.594 -10.967 -455.48 0.82748 0.55879 -0.055014 0.00061083 
-0.0015806 0.25883 -8.2115 0.93678 -0.3491 0.024074 0.0011937 
0.67709 1.084 19.753 -0.93698 0.34855 -0.024077 0.0011906 
7.0415 6.2556 164.48 -0.22642 -0.97152 -0.06995 0.021619 
0.87205 2.5217 56.307 -0.64095 -0.76665 -0.037677 0.002869 
32.202 -18.173 445.02 0.52622 0.84973 -0.032364 0.0011559 
-81.829 -64.271 -2031 0.94636 0.31962 -0.047328 0 
-64.837 24.219 -1139.7 -0.94636 -0.31962 0.047328 0 
-1.7664 -2.482 115.05 -0.99719 0.071566 -0.022069 0.020029 
-47.593 13.703 -869.33 -0.98426 -0.16831 0.053866 0 
-14.469 2.9544 -233.64 0.52946 -0.8483 -0.0078958 0.001234 
-1.6017 3.1285 -219.17 0.21093 -0.97748 -0.0065952 0.0014522 
-1.5223 -1.3566 221.05 -0.35764 0.93386 -0.002173 0.010315 
-8.8341 -1.7285 -156.52 -0.21093 0.97748 0.0065952 0.0014522 
0.36829 0.28679 -7.8672 -0.93698 0.34855 -0.024077 0.0011906 
-1.4065 1.4273 34.993 -0.86691 -0.4977 -0.027728 0.003067 
-2.1232 -0.59331 73.538 -0.55338 -0.8323 -0.03227 0.001927 
-1.8882 -2.1433 264.49 0.065952 -0.99779 -0.0081827 0.0057063 
-7.5933 -0.92074 182.64 -0.23728 -0.96919 -0.066146 0.01673 
-1.4695 0.1463 53.898 -0.73054 -0.6817 -0.039838 0.0030889 
-0.79482 1.1185 41.164 -0.75693 -0.65259 -0.034552 0.0031374 
3 7 61 42
3 38 43 58
